<svg xmlns="http://www.w3.org/2000/svg" xmlns:xlink="http://www.w3.org/1999/xlink"><symbol id="icon-email" viewBox="0 0 26 20">
<path d="M24.2273 0H1.77273C0.768182 0 0 0.764706 0 1.76471V18.2353C0 19.2353 0.768182 20 1.77273 20H24.2273C25.2318 20 26 19.2353 26 18.2353V1.76471C26 0.764706 25.2318 0 24.2273 0ZM24.2273 17L19.5591 12.3529C19.2045 12 18.6727 12 18.3182 12.3529C17.9636 12.7059 17.9636 13.2353 18.3182 13.5882L22.9864 18.2353H3.01362L7.68182 13.5882C8.03636 13.2353 8.03636 12.7059 7.68182 12.3529C7.32727 12 6.79547 12 6.44092 12.3529L1.77273 17V5.70585L12.4091 13.7059C12.5864 13.8236 12.7636 13.8823 12.9409 13.8823C13.1182 13.8823 13.2954 13.8236 13.4727 13.7059L24.2273 5.70585V17ZM24.2273 1.76471V3.4706L12.9409 11.8235L1.77273 3.4706V1.76471H24.2273Z" fill="#0AD9C6"/>
</symbol><symbol id="icon-logo" viewBox="0 0 68 21">
<path d="M13.3636 0V20.0455H10.0705V5.82273L8.97273 7.20682L6.825 9.975L6.72954 10.0705L6.58636 9.975L4.43864 7.20682L3.34091 5.775V20.0455H0V0H3.34091L6.72954 4.29545L10.0705 0H13.3636Z" fill="#0AD9C6"/>
<path d="M8.30444 10.0705L8.20898 9.97501L8.30444 10.0705Z" fill="#0AD9C6"/>
<path d="M8.44787 9.97501L8.35241 10.0705H8.30469L8.44787 9.97501Z" fill="#0AD9C6"/>
<path d="M38.209 5.61453L29.082 12.316L31.1952 15.194L40.3222 8.49252L38.209 5.61453Z" fill="#0AD9C6"/>
<path d="M26.6672 3C22.8032 3 19.624 6.13028 19.624 10.0431C19.624 13.9071 22.7543 17.0863 26.6672 17.0863C30.5311 17.0863 33.7103 13.956 33.7103 10.0431C33.7103 6.17919 30.5311 3 26.6672 3ZM26.6672 13.2712C24.8575 13.2712 23.4391 11.8039 23.4391 10.0431C23.4391 8.23344 24.9064 6.81503 26.6672 6.81503C28.4279 6.81503 29.8953 8.28235 29.8953 10.0431C29.8953 11.8039 28.4279 13.2712 26.6672 13.2712Z" fill="#0AD9C6"/>
<path d="M43.6393 3C39.7754 3 36.5962 6.13028 36.5962 10.0431C36.5962 13.9071 39.7265 17.0863 43.6393 17.0863C47.5033 17.0863 50.6825 13.956 50.6825 10.0431C50.6336 6.17919 47.5033 3 43.6393 3ZM43.6393 13.2712C41.8296 13.2712 40.4112 11.8039 40.4112 10.0431C40.4112 8.23344 41.8785 6.81503 43.6393 6.81503C45.4001 6.81503 46.8674 8.28235 46.8674 10.0431C46.8674 11.8039 45.4001 13.2712 43.6393 13.2712Z" fill="#0AD9C6"/>
<path d="M67.5977 0.238647V20.2841H64.2568V9.87956L61.4409 7.20683L59.3409 5.15456V20.2841H56V0.238647H59.2932H59.3409L63.2545 4.0091L64.2568 4.96365V0.238647H67.5977Z" fill="#0AD9C6"/>
<rect x="37" y="3" width="6" height="4" fill="#0AD9C6"/>
</symbol><symbol id="icon-phone" viewBox="0 0 22 24">
<path d="M3.45641 6.74199C3.37185 5.54391 3.63759 4.36374 4.3412 3.41452C4.9512 2.554 5.74541 2.08404 6.70269 1.8094C7.50898 1.57018 8.03745 1.86329 8.26998 2.75972C8.60217 4.09991 9.07628 5.44018 9.24841 6.85129C9.30277 7.47252 8.90114 8.35089 8.46629 8.80328C7.37614 9.87655 7.60263 10.6576 8.43006 12.282C8.68675 12.8057 9.09442 13.7111 9.88864 14.9096C10.7161 16.1169 11.1539 16.7649 12.2169 16.2152C13.3977 15.6212 14.2583 16.0032 15.1492 16.9621C15.7531 17.6546 16.4175 18.2495 17.0215 18.942C17.8942 19.9718 17.8549 20.6818 17.1725 21.4091C15.9434 22.7486 13.9141 23.1913 12.4042 22.2943C11.5707 21.8058 10.7402 21.1664 10.0789 20.4206C7.16477 17.1002 5.06297 13.2388 3.79765 8.88089C3.59532 8.14421 3.50171 7.39872 3.45641 6.74199Z" stroke="#0AD9C6" stroke-width="2" stroke-miterlimit="10"/>
</symbol><symbol id="icon-play" viewBox="0 0 19 26">
<path fill-rule="evenodd" clip-rule="evenodd" d="M0.757324 0.528564L18.8288 13.1786L0.757324 25.8287V0.528564Z" fill="#070707"/>
</symbol></svg>